HIERARCHY
ROOT hip
{
	OFFSET 0.000000 0.000000 0.000000 
	CHANNELS 6 Xposition Yposition Zposition Zrotation Xrotation Yrotation
	JOINT abdomen
	{
		OFFSET 0.000000 3.402643 0.000000 
		CHANNELS 3 Zrotation Xrotation Yrotation
		JOINT chest
		{
			OFFSET 0.000000 8.438565 -0.680529 
			CHANNELS 3 Zrotation Xrotation Yrotation
			JOINT neck
			{
				OFFSET 0.000000 10.207942 -0.272212 
				CHANNELS 3 Zrotation Xrotation Yrotation
				JOINT head
				{
					OFFSET 0.000000 3.130431 0.000000 
					CHANNELS 3 Zrotation Xrotation Yrotation
					End Site
					{
						OFFSET 0.000000 3.130435 0.000000 
					}
				}
			}
			JOINT lCollar
			{
				OFFSET 3.470700 6.669187 -0.816635 
				CHANNELS 3 Zrotation Xrotation Yrotation
				JOINT lShldr
				{
					OFFSET 3.198488 0.000000 0.000000 
					CHANNELS 3 Zrotation Xrotation Yrotation
					JOINT lForeArm
					{
						OFFSET 10.139888 0.000000 0.000000 
						CHANNELS 3 Zrotation Xrotation Yrotation
						JOINT lHand
						{
							OFFSET 8.370511 0.000000 0.000000 
							CHANNELS 3 Zrotation Xrotation Yrotation
							End Site
							{
								OFFSET 4.083176 0.000000 0.000000 
							}
						}
					}
				}
			}
			JOINT rCollar
			{
				OFFSET -3.470700 6.669187 -0.816635 
				CHANNELS 3 Zrotation Xrotation Yrotation
				JOINT rShldr
				{
					OFFSET -3.198488 0.000000 0.000000 
					CHANNELS 3 Zrotation Xrotation Yrotation
					JOINT rForeArm
					{
						OFFSET -10.139888 0.000000 0.000000 
						CHANNELS 3 Zrotation Xrotation Yrotation
						JOINT rHand
						{
							OFFSET -8.370511 0.000000 0.000000 
							CHANNELS 3 Zrotation Xrotation Yrotation
							End Site
							{
								OFFSET -4.083176 0.000000 0.000000 
							}
						}
					}
				}
			}
		}
	}
	JOINT lThigh
	{
		OFFSET 5.308129 -1.633274 1.361059 
		CHANNELS 3 Zrotation Xrotation Yrotation
		JOINT lShin
		{
			OFFSET -2.041588 -20.007561 0.000000 
			CHANNELS 3 Zrotation Xrotation Yrotation
			JOINT lFoot
			{
				OFFSET 0.000000 -19.190928 -1.224953 
				CHANNELS 3 Zrotation Xrotation Yrotation
				End Site
				{
					OFFSET 0.000000 -2.449906 4.627600 
				}
			}
		}
	}
	JOINT rThigh
	{
		OFFSET -5.308129 -1.633274 1.361059 
		CHANNELS 3 Zrotation Xrotation Yrotation
		JOINT rShin
		{
			OFFSET 2.041588 -20.007561 0.000000 
			CHANNELS 3 Zrotation Xrotation Yrotation
			JOINT rFoot
			{
				OFFSET 0.000000 -19.190928 -1.224953 
				CHANNELS 3 Zrotation Xrotation Yrotation
				End Site
				{
					OFFSET 0.000000 -2.449906 4.627600 
				}
			}
		}
	}
}
MOTION
Frames: 19
Frame Time: 0.033333
-2.730740 48.287907 -1.522363 0.478602 1.083927 31.690216 -0.000000 -0.000002 -0.000000 0.049001 4.814451 -5.775595 5.163354 9.794847 -24.463827 -0.954937 -15.993991 -0.145955 -2.000757 -0.069240 1.990978 -65.216423 16.210947 0.040678 4.092924 9.195778 -46.173512 14.958502 -5.176928 3.216265 1.990970 -0.069577 -2.000746 59.290459 1.089860 16.311621 -9.983068 11.092156 44.396175 22.491049 1.689461 0.635026 8.384282 -15.061663 -16.689617 -7.876793 39.274456 3.480942 -7.905134 -26.504921 10.100800 -21.609943 -10.952297 -33.848743 13.077340 34.283661 -1.848018 -3.463091 -20.792963 6.394135 
-2.751713 48.380692 -2.010822 1.015788 1.034976 35.343231 -0.000000 -0.000002 -0.000000 -0.156643 4.062490 -4.119790 5.565865 10.702433 -29.727253 -0.954937 -15.993991 -0.145955 -2.000757 -0.069240 1.990978 -67.761826 19.372358 3.933992 4.303943 8.986279 -48.992062 13.014881 -3.015570 -2.092727 1.990970 -0.069577 -2.000746 55.950218 1.666307 16.550165 -10.878110 10.188617 49.389740 21.683548 -3.004985 2.307886 7.752796 -15.998910 -16.655363 -7.981366 39.458252 3.574244 -7.851753 -25.366756 6.384807 -21.773891 -10.037611 -33.059036 12.754045 33.727917 -1.669244 -3.378957 -20.515116 2.244211 
-2.867848 48.285233 -2.139190 1.279502 1.025127 37.164726 -0.000000 -0.000002 -0.000000 -0.244656 3.730438 -3.255643 5.792250 11.096824 -32.347996 -0.954937 -15.993991 -0.145955 -2.000757 -0.069240 1.990978 -74.117073 28.114349 11.877272 5.931009 4.477307 -95.579788 -11.603126 7.024838 -2.381157 1.990970 -0.069577 -2.000746 58.466179 11.611512 4.795630 -10.554134 -9.921648 134.053772 30.423630 -69.774567 30.054993 7.470844 -16.344334 -16.609934 -8.016992 39.442844 3.606018 -7.838006 -24.742325 4.555392 -21.886568 -9.501931 -32.937336 12.561543 33.401974 -1.543925 -3.306868 -20.422119 0.481220 
-2.825171 48.439537 -2.190383 0.908227 0.419866 39.671074 -0.000000 -0.000002 -0.000000 -0.675184 3.632566 -8.131047 7.246664 12.277220 -30.864033 -0.954937 -15.993991 -0.145955 -2.000757 -0.069240 1.990978 -75.581673 21.721523 9.645847 5.943877 4.613379 -94.274597 -11.734981 6.741992 -2.438742 1.990970 -0.069577 -2.000746 49.225384 6.371730 14.250023 -13.323754 -5.767651 114.631844 62.043190 -70.807358 56.487656 8.328312 -16.625036 -16.634781 -7.887798 39.044842 3.534853 -8.169691 -23.818789 2.029851 -20.335016 -8.158122 -32.690815 11.832893 32.016338 -1.174965 -3.137448 -20.151194 -1.868991 
-2.799367 48.604568 -2.243957 0.527350 -0.283209 42.385475 -0.000000 -0.000002 -0.000000 -1.125247 3.583294 -12.839821 8.791698 13.555815 -29.896942 -0.954937 -15.993991 -0.145955 -2.000757 -0.069240 1.990978 -76.908928 14.526369 8.142848 5.954304 4.682724 -93.666489 -12.000475 6.175118 -2.553873 1.990970 -0.069577 -2.000746 42.002056 -0.671290 22.882521 -14.566872 -0.959167 95.623497 90.165955 -67.186447 79.392784 9.288862 -16.857777 -16.642294 -7.702502 38.535980 3.420545 -8.481578 -22.861742 -0.654417 -18.660526 -6.703400 -32.521584 10.999541 30.270182 -0.744677 -2.876957 -19.693937 -4.412164 
-2.765127 48.760223 -2.296340 0.205107 -0.957046 44.993649 -0.000000 -0.000002 -0.000000 -1.575311 3.563114 -17.636446 10.295865 15.000201 -29.049307 -0.954937 -15.993991 -0.145955 -2.000757 -0.069240 1.990978 -78.061874 7.733793 5.824646 5.961931 4.778242 -92.708809 -12.196972 5.755243 -2.630440 1.990970 -0.069577 -2.000746 37.555038 -5.799950 27.673243 -14.332810 3.192949 79.745522 109.934853 -60.381466 93.697426 10.162685 -17.151176 -16.643469 -7.570547 37.997833 3.318040 -8.719217 -21.821384 -3.164866 -16.942019 -5.299993 -32.373398 10.184631 28.450075 -0.363381 -2.651243 -19.164862 -6.874343 
-2.697150 48.887390 -2.343971 -0.039077 -1.513674 47.166946 -0.000000 -0.000002 -0.000000 -2.015614 3.562254 -22.784864 11.586163 16.655733 -27.952827 -0.954937 -15.993991 -0.145955 -2.000757 -0.069240 1.990978 -78.983101 2.646075 1.241557 5.944157 5.031200 -90.337326 -11.898664 6.389994 -2.505816 1.990970 -0.069577 -2.000746 34.471386 -8.008268 29.198505 -13.311834 6.423130 66.765816 123.779755 -51.637009 101.669113 10.835030 -17.457319 -16.610561 -7.430708 37.610939 3.216964 -8.883907 -20.999992 -5.327440 -15.475388 -4.067508 -32.311050 9.416719 26.742432 0.011661 -2.386719 -18.565331 -8.928382 
-2.570130 48.967758 -2.383279 -0.185650 -1.904301 48.568058 -0.000000 -0.000002 -0.000000 -2.426614 3.580781 -28.559296 12.428230 18.627827 -26.165314 -0.954937 -15.993991 -0.145955 -2.000757 -0.069240 1.990978 -79.232758 0.523434 -6.982716 5.904073 5.543807 -85.467499 -11.603126 7.024838 -2.381157 1.990970 -0.069577 -2.000746 32.523113 -9.940327 31.791370 -11.683141 9.203232 54.301945 132.437164 -43.172768 104.437675 11.240956 -17.537006 -16.570753 -7.311771 37.350632 3.138820 -8.933266 -20.522263 -6.703136 -14.459600 -3.169866 -32.260468 8.847576 25.462219 0.258032 -2.115880 -18.183691 -10.201320 
-2.368898 49.008923 -2.418463 -0.263843 -2.060530 49.248287 -0.000000 -0.000002 -0.000000 -2.837630 3.599112 -35.534599 12.475498 21.050653 -22.922661 -0.954937 -15.993991 -0.145955 -2.000757 -0.069240 1.990978 -76.610176 2.107705 -21.528963 5.712409 6.556606 -75.831261 -10.385271 8.761926 -2.341776 1.990970 -0.069577 -2.000746 37.766411 -7.721084 40.242908 -11.019190 10.020944 50.235691 130.414688 -44.915878 99.224792 11.351796 -17.517126 -16.581465 -7.347911 37.395447 3.181773 -8.803441 -20.413383 -7.337296 -14.193588 -2.604519 -32.260750 8.528354 24.642702 0.377337 -1.654363 -17.819424 -10.706109 
-2.111678 49.032681 -2.454513 -0.302934 -2.080044 49.549553 -0.000000 -0.000002 -0.000000 -3.229165 3.636814 -43.515640 11.529675 23.804012 -18.193041 -0.954937 -15.993991 -0.145955 -2.000757 -0.069240 1.990978 -68.912231 5.264254 -41.148331 5.133887 7.877720 -62.125015 -8.583431 10.808959 -2.604844 1.990970 -0.069577 -2.000746 43.444675 -3.997879 50.137379 -9.951643 11.120727 44.269936 126.681427 -46.065285 92.133003 11.274764 -17.420134 -16.565262 -7.387943 37.429638 3.225746 -8.645758 -20.518965 -7.605598 -13.975092 -2.199270 -32.227234 8.253825 24.067036 0.511077 -1.381554 -17.687820 -10.949184 
-1.823295 49.041706 -2.489089 -0.293144 -1.982413 49.452690 -0.000000 -0.000002 -0.000000 -3.601318 3.723126 -51.671055 9.657802 26.527252 -12.577323 -0.954937 -15.993991 -0.145955 -2.000757 -0.069240 1.990978 -57.316113 7.060509 -61.301453 4.217439 9.082407 -47.696430 -6.565220 13.765075 -2.654402 1.990970 -0.069577 -2.000746 48.586349 0.954270 60.082169 -8.492224 12.312170 36.859154 121.645653 -45.990871 84.140961 11.059548 -17.265568 -16.539387 -7.359248 37.462009 3.148778 -8.428950 -20.756184 -7.547670 -14.045465 -1.973053 -32.204632 8.132737 23.825964 0.566171 -1.063029 -17.672243 -10.887029 
-1.528564 49.038486 -2.519871 -0.293127 -1.884739 49.355602 -0.000000 -0.000002 -0.000000 -3.924832 3.838659 -59.141792 7.179678 28.939457 -6.788904 -0.954937 -15.993991 -0.145955 -2.000757 -0.069240 1.990978 -45.751476 6.917157 -77.614067 3.262056 9.868251 -35.992199 -4.720707 18.231968 -1.984421 1.990970 -0.069577 -2.000746 52.457836 6.272076 69.093002 -6.743039 13.382707 28.800158 116.452492 -44.419487 76.784660 10.784802 -17.102766 -16.544981 -7.371650 37.390743 3.170279 -8.139541 -20.977859 -7.297201 -14.280390 -1.856838 -32.187084 8.051836 23.748440 0.587802 -0.751843 -17.694462 -10.621815 
-1.252369 49.025093 -2.544484 -0.273571 -1.787113 49.063709 -0.000000 -0.000002 -0.000000 -4.170098 3.954387 -65.053703 4.594312 30.797745 -1.682227 -0.954937 -15.993991 -0.145955 -2.000757 -0.069240 1.990978 -38.745029 6.775933 -86.620636 2.765994 10.170387 -30.480795 -3.609470 24.853516 -0.032292 1.990970 -0.069577 -2.000746 54.568676 10.805898 76.251938 -5.116360 14.105143 21.872814 112.563568 -41.780323 71.748940 10.507935 -16.937490 -16.522644 -7.404184 37.545238 3.196014 -7.917165 -21.315044 -6.983847 -14.590306 -1.817209 -32.170212 8.014525 23.821646 0.612885 -0.446153 -17.767841 -10.279718 
-1.019508 49.004375 -2.560593 -0.234483 -1.738287 48.781948 -0.000000 -0.000002 -0.000000 -4.082885 4.130154 -67.127319 3.357926 31.860140 0.150375 -0.954937 -15.993991 -0.145955 -2.000757 -0.069240 1.990978 -50.194164 8.635045 -65.926460 5.013444 8.093273 -59.753300 -13.179901 38.021305 17.308132 1.990970 -0.069577 -2.000746 55.545528 12.026939 75.533821 -6.277141 13.614956 26.785618 112.826103 -43.081562 71.074142 10.233620 -16.786024 -16.545055 -7.510159 37.847691 3.271622 -7.636584 -21.705853 -6.687369 -14.913808 -1.757672 -32.140991 8.008192 23.906248 0.611893 -0.141750 -17.772566 -9.894650 
-0.854816 48.976418 -2.565873 -0.205180 -1.806646 48.597042 -0.000000 -0.000002 -0.000000 -3.975234 4.140443 -65.875305 3.401858 32.727459 -0.893457 -0.954937 -15.993991 -0.145955 -2.000757 -0.069240 1.990978 -72.923462 14.028165 -50.968693 5.609802 6.858939 -72.789680 -24.460085 57.561676 33.054440 1.990970 -0.069577 -2.000746 56.293346 10.461959 69.790092 -8.669236 12.177577 37.757942 115.256874 -46.477619 72.575043 10.083090 -16.640114 -16.540890 -7.600387 38.162498 3.332951 -7.396220 -22.066507 -6.470676 -15.087498 -1.624555 -32.132984 8.054974 24.128344 0.612927 0.092812 -17.783281 -9.684643 
-0.781893 48.936237 -2.556819 -0.166121 -2.041013 48.568272 -0.000000 -0.000002 -0.000000 -4.481866 3.670417 -64.360939 3.014508 34.289234 -1.425494 -0.954937 -15.993991 -0.145955 -2.000757 -0.069240 1.990978 -79.926704 17.590197 -41.976250 5.790242 6.234022 -78.926163 -25.126841 66.268303 35.994663 1.990970 -0.069577 -2.000746 56.589859 9.194637 65.389046 -10.024000 11.068648 44.573917 116.666748 -47.959381 73.595192 10.248951 -16.497938 -16.561855 -7.693580 38.527142 3.407345 -7.384938 -22.392731 -6.539056 -15.038044 -1.407990 -32.078964 8.104807 24.257526 0.587759 0.122934 -18.073490 -9.579753 
-0.799824 48.869171 -2.527589 -0.117296 -2.460948 48.578957 -0.000000 -0.000002 -0.000000 -5.212358 3.024578 -62.762211 2.320813 36.100647 -1.475347 -0.954937 -15.993991 -0.145955 -2.000757 -0.069240 1.990978 -81.241173 21.418600 -35.326866 5.877661 5.786044 -83.221138 -17.843832 71.338493 31.199408 1.990970 -0.069577 -2.000746 56.545551 8.096697 61.727901 -10.893606 10.172016 49.477421 117.538757 -48.661034 74.460266 10.667199 -16.314341 -16.590197 -7.843345 39.091011 3.481684 -7.531622 -22.844179 -6.694151 -14.809358 -1.089325 -32.059460 8.330829 24.734426 0.497941 -0.080486 -18.524122 -9.538546 
-0.885259 48.780312 -2.483248 -0.048895 -3.007835 48.591175 -0.000000 -0.000002 -0.000000 -5.991096 2.282403 -60.962723 1.609784 37.938248 -1.350988 -0.954937 -15.993991 -0.145955 -2.000757 -0.069240 1.990978 -81.041847 25.835165 -29.824133 5.926489 5.450020 -86.418274 -3.464168 74.981285 19.773272 1.990970 -0.069577 -2.000746 56.256824 7.317981 58.628342 -11.548601 9.372337 53.468369 118.192360 -49.053654 75.379051 11.267615 -16.105211 -16.647610 -8.008431 39.793076 3.586020 -7.759371 -23.434204 -6.918766 -14.468463 -0.778036 -32.013210 8.688287 25.387596 0.349204 -0.397089 -19.096373 -9.493769 
-1.014033 48.678333 -2.430405 0.009785 -3.613294 48.594364 -0.000000 -0.000002 -0.000000 -6.818671 1.473882 -59.063221 0.927141 39.742393 -1.188489 -0.954937 -15.993991 -0.145955 -2.000757 -0.069240 1.990978 -79.801460 30.845879 -25.567354 5.943237 5.194058 -88.789337 17.129999 76.773529 2.647181 1.990970 -0.069577 -2.000746 55.807198 6.488259 55.790009 -12.049059 8.699429 56.740379 118.682732 -49.266808 76.309517 11.928300 -15.956206 -16.755039 -8.217315 40.567371 3.693586 -8.056381 -23.959700 -7.129065 -14.088818 -0.418501 -31.976936 9.060936 26.118916 0.187308 -0.762962 -19.662727 -9.469274 
